<svg xmlns="http://www.w3.org/2000/svg" width="14.625" height="14.625" viewBox="0 0 14.625 14.625">
  <path id="Icon_awesome-search-dollar" data-name="Icon awesome-search-dollar" d="M14.426,12.644,11.578,9.8a.685.685,0,0,0-.486-.2h-.466A5.94,5.94,0,1,0,9.6,10.625v.466a.685.685,0,0,0,.2.486l2.848,2.848a.683.683,0,0,0,.968,0l.808-.808a.688.688,0,0,0,0-.971ZM5.942,10.054a4.113,4.113,0,1,1,4.113-4.113A4.111,4.111,0,0,1,5.942,10.054ZM6.716,5.7,5.431,5.311a.373.373,0,0,1-.251-.364.359.359,0,0,1,.337-.377h.8a.684.684,0,0,1,.366.106.234.234,0,0,0,.289-.021l.336-.32A.229.229,0,0,0,7.3,3.989a1.636,1.636,0,0,0-.9-.324V3.2a.228.228,0,0,0-.229-.229H5.714a.228.228,0,0,0-.229.229v.46A1.272,1.272,0,0,0,4.266,4.947a1.293,1.293,0,0,0,.9,1.239l1.286.386a.373.373,0,0,1,.251.364.359.359,0,0,1-.337.377h-.8A.684.684,0,0,1,5.2,7.206a.234.234,0,0,0-.289.021l-.336.32a.229.229,0,0,0,.016.347,1.636,1.636,0,0,0,.9.324v.465a.228.228,0,0,0,.229.229h.457A.228.228,0,0,0,6.4,8.684v-.46A1.272,1.272,0,0,0,7.619,6.936a1.293,1.293,0,0,0-.9-1.239Z" fill="#5f5af7"/>
</svg>
