<svg xmlns="http://www.w3.org/2000/svg" width="11.386" height="15.475" viewBox="0 0 11.386 15.475">
  <path id="Icon_awesome-file-invoice-dollar" data-name="Icon awesome-file-invoice-dollar" d="M11.178,3.174,8.276.212A.7.7,0,0,0,7.771,0H7.591V3.869h3.8V3.684A.73.73,0,0,0,11.178,3.174Zm-4.537.937V0H.712A.717.717,0,0,0,0,.725V14.75a.717.717,0,0,0,.712.725h9.963a.717.717,0,0,0,.712-.725V4.836H7.353A.721.721,0,0,1,6.642,4.111ZM1.9,2.176a.239.239,0,0,1,.237-.242H4.507a.239.239,0,0,1,.237.242V2.66a.239.239,0,0,1-.237.242H2.135A.239.239,0,0,1,1.9,2.66Zm0,2.418V4.111a.239.239,0,0,1,.237-.242H4.507a.239.239,0,0,1,.237.242v.484a.239.239,0,0,1-.237.242H2.135A.239.239,0,0,1,1.9,4.594Zm4.27,7.976V13.3a.239.239,0,0,1-.237.242H5.456a.239.239,0,0,1-.237-.242v-.734a1.678,1.678,0,0,1-.93-.343.245.245,0,0,1-.017-.367l.348-.339a.24.24,0,0,1,.3-.022.7.7,0,0,0,.38.112h.833a.377.377,0,0,0,.35-.4.394.394,0,0,0-.26-.385l-1.334-.408A1.365,1.365,0,0,1,3.953,9.1,1.335,1.335,0,0,1,5.218,7.741V7.012a.239.239,0,0,1,.237-.242H5.93a.239.239,0,0,1,.237.242v.734a1.676,1.676,0,0,1,.93.343.245.245,0,0,1,.017.367L6.766,8.8a.24.24,0,0,1-.3.022.7.7,0,0,0-.38-.112H5.252a.377.377,0,0,0-.35.4.394.394,0,0,0,.26.385L6.5,9.9a1.365,1.365,0,0,1,.936,1.311A1.335,1.335,0,0,1,6.167,12.57Z" fill="#5f5af7"/>
</svg>
