<svg xmlns="http://www.w3.org/2000/svg" width="15.271" height="9.166" viewBox="0 0 15.271 9.166">
  <path id="Icon_awesome-handshake" data-name="Icon awesome-handshake" d="M10.372,4.5H8.323a.763.763,0,0,0-.515.2L5.462,6.848l-.007.01A.949.949,0,0,0,5.4,8.194a1,1,0,0,0,1.339.064s.007,0,.01,0L8.659,6.507a.382.382,0,0,1,.515.563l-.623.57,3.474,2.82a1.719,1.719,0,0,1,.189.184V6.027l-1.3-1.3a.758.758,0,0,0-.539-.224ZM12.98,6.032v5.342a.763.763,0,0,0,.764.764h1.527V6.032Zm1.145,5.342a.382.382,0,1,1,.382-.382A.383.383,0,0,1,14.126,11.374ZM0,12.135H1.527a.763.763,0,0,0,.764-.764V6.032H0Zm1.145-1.525a.382.382,0,1,1-.382.382A.383.383,0,0,1,1.145,10.611Zm10.4.444L7.984,8.163l-.716.656A1.717,1.717,0,0,1,4.946,6.287L6.9,4.5h-2a.762.762,0,0,0-.539.224l-1.305,1.3V11.37h.437L5.65,13.324A1.527,1.527,0,0,0,7.8,13.1l0,0,.427.37a.887.887,0,0,0,1.248-.129l.749-.921.129.1a.762.762,0,0,0,1.074-.112l.227-.279a.765.765,0,0,0-.11-1.076Z" transform="translate(0 -4.5)" fill="#5f5af7"/>
</svg>
