<svg xmlns="http://www.w3.org/2000/svg" width="10.011" height="10.011" viewBox="0 0 10.011 10.011">
  <path id="Icon_awesome-percentage" data-name="Icon awesome-percentage" d="M2.848,7.348a1.668,1.668,0,1,0-2.36,0A1.669,1.669,0,0,0,2.848,7.348Zm6.674,4.314a1.668,1.668,0,1,0,0,2.36A1.669,1.669,0,0,0,9.522,11.662ZM9.471,5.629l-.59-.59a.834.834,0,0,0-1.18,0L.539,12.2a.834.834,0,0,0,0,1.18l.59.59a.834.834,0,0,0,1.18,0L9.471,6.809A.834.834,0,0,0,9.471,5.629Z" transform="translate(0 -4.5)" fill="#5f5af7"/>
</svg>
