<svg xmlns="http://www.w3.org/2000/svg" width="12.951" height="14.39" viewBox="0 0 12.951 14.39">
  <path id="Icon_material-date-range" data-name="Icon material-date-range" d="M8.817,9.476H7.378v1.439H8.817Zm2.878,0H10.256v1.439H11.7Zm2.878,0H13.134v1.439h1.439Zm1.439-5.037h-.72V3H13.854V4.439H8.1V3H6.659V4.439h-.72A1.432,1.432,0,0,0,4.507,5.878L4.5,15.951A1.439,1.439,0,0,0,5.939,17.39H16.012a1.443,1.443,0,0,0,1.439-1.439V5.878A1.443,1.443,0,0,0,16.012,4.439Zm0,11.512H5.939V8.037H16.012Z" transform="translate(-4.5 -3)" fill="#5f5af7"/>
</svg>
