<svg xmlns="http://www.w3.org/2000/svg" width="12.304" height="15.154" viewBox="0 0 12.304 15.154">
  <path id="Icon_material-flip" data-name="Icon material-flip" d="M12.7,15.276H14.07V13.9H12.7Zm2.734-8.266H16.8V5.633H15.437ZM4.5,4.255V13.9a1.376,1.376,0,0,0,1.367,1.378H8.6V13.9H5.867V4.255H8.6V2.878H5.867A1.376,1.376,0,0,0,4.5,4.255ZM15.437,2.878V4.255H16.8A1.376,1.376,0,0,0,15.437,2.878ZM9.969,16.654h1.367V1.5H9.969Zm5.469-4.133H16.8V11.143H15.437ZM12.7,4.255H14.07V2.878H12.7Zm2.734,5.511H16.8V8.388H15.437Zm0,5.511A1.376,1.376,0,0,0,16.8,13.9H15.437Z" transform="translate(-4.5 -1.5)" fill="#5f5af7"/>
</svg>
