<svg xmlns="http://www.w3.org/2000/svg" width="14.211" height="14.211" viewBox="0 0 14.211 14.211">
  <path id="Icon_material-select-all" data-name="Icon material-select-all" d="M4.5,6.079H6.079V4.5A1.584,1.584,0,0,0,4.5,6.079Zm0,6.316H6.079V10.816H4.5Zm3.158,6.316H9.237V17.132H7.658ZM4.5,9.237H6.079V7.658H4.5ZM12.4,4.5H10.816V6.079H12.4Zm4.737,0V6.079h1.579A1.584,1.584,0,0,0,17.132,4.5ZM6.079,18.711V17.132H4.5A1.584,1.584,0,0,0,6.079,18.711ZM4.5,15.553H6.079V13.974H4.5ZM9.237,4.5H7.658V6.079H9.237Zm1.579,14.211H12.4V17.132H10.816ZM17.132,12.4h1.579V10.816H17.132Zm0,6.316a1.584,1.584,0,0,0,1.579-1.579H17.132Zm0-9.474h1.579V7.658H17.132Zm0,6.316h1.579V13.974H17.132Zm-3.158,3.158h1.579V17.132H13.974Zm0-12.632h1.579V4.5H13.974ZM7.658,15.553h7.9v-7.9h-7.9ZM9.237,9.237h4.737v4.737H9.237Z" transform="translate(-4.5 -4.5)" fill="#5f5af7"/>
</svg>
