<svg xmlns="http://www.w3.org/2000/svg" width="7.021" height="13.485" viewBox="0 0 7.021 13.485">
  <path id="Icon_metro-dollar2" data-name="Icon metro-dollar2" d="M16.979,11.121A2.863,2.863,0,0,1,16.23,13.1a3.232,3.232,0,0,1-1.945,1.027v1.317a.232.232,0,0,1-.241.241H13.028a.244.244,0,0,1-.241-.241V14.131a4.743,4.743,0,0,1-.959-.233,4.621,4.621,0,0,1-1.321-.7,4.289,4.289,0,0,1-.35-.282q-.094-.09-.132-.135a.229.229,0,0,1-.015-.309l.775-1.016a.234.234,0,0,1,.173-.09.186.186,0,0,1,.181.068l.015.015a3.93,3.93,0,0,0,1.829.941,2.628,2.628,0,0,0,.557.06,1.825,1.825,0,0,0,1.072-.324,1.054,1.054,0,0,0,.463-.918.763.763,0,0,0-.113-.4,1.41,1.41,0,0,0-.252-.316,2.065,2.065,0,0,0-.44-.282q-.3-.154-.5-.241t-.6-.245l-.463-.188q-.169-.068-.463-.2t-.47-.233q-.177-.1-.425-.267a2.65,2.65,0,0,1-.4-.32,4.69,4.69,0,0,1-.327-.369,1.841,1.841,0,0,1-.267-.436,3.018,3.018,0,0,1-.158-.5,2.612,2.612,0,0,1-.064-.587,2.573,2.573,0,0,1,.737-1.821A3.443,3.443,0,0,1,12.787,3.8V2.444a.244.244,0,0,1,.241-.241h1.016a.232.232,0,0,1,.241.241V3.769a4.186,4.186,0,0,1,.832.173,4.822,4.822,0,0,1,.655.252,3.626,3.626,0,0,1,.478.282q.226.158.293.218t.113.105a.218.218,0,0,1,.038.286l-.61,1.1a.2.2,0,0,1-.173.12.24.24,0,0,1-.2-.053q-.023-.023-.109-.09t-.293-.2a3.883,3.883,0,0,0-.44-.241,3.361,3.361,0,0,0-.561-.2,2.511,2.511,0,0,0-.643-.087,1.956,1.956,0,0,0-1.166.324,1.012,1.012,0,0,0-.388,1.2.847.847,0,0,0,.222.312,3.316,3.316,0,0,0,.3.248,2.651,2.651,0,0,0,.421.233q.282.132.455.2t.527.207q.4.151.61.237t.572.263a4.546,4.546,0,0,1,.568.32,4.8,4.8,0,0,1,.467.376,1.948,1.948,0,0,1,.4.478,2.727,2.727,0,0,1,.237.576,2.483,2.483,0,0,1,.1.707Z" transform="translate(-9.957 -2.203)" fill="#5f5af7"/>
</svg>
