<svg id="Layer_1" enable-background="new 0 0 23 23" height="19.154" viewBox="0 0 22.304 23.154" width="23.304"
 xmlns="http://www.w3.org/2000/svg">
<g id="_x35_6">
<path d="m19.7939758 17.078064c1.0756836-1.5944824 1.7045898-3.513916 1.7045898-5.5777588 0-5.5136719-4.4863281
-10-10-10s-10 4.4863281-10 10 4.4863281 
10 10 10c2.0621338 0 3.9801025-.6280518 5.5738525-1.7022705l3.1390381 
3.1391602c.75.75 1.9699707.75 2.7199707 0 .7600098-.75.7600098-1.9699707 0-2.7299805zm-8.2954101 2.4222412c-4.4111328 
0-8-3.5888672-8-8s3.5888672-8 8-8 8 3.5888672 8 8-3.5888672 8-8 8z" fill="#5f5af7"/>
<path d="m6.493 9.507h2v5.987h-2z" fill="#5f5af7"/>
<path d="m10.499 7.507h2v7.987h-2z" fill="#5f5af7"/><path d="m14.504 11.5h2v3.994h-2z" fill="#5f5af7"/></g></svg>




