<svg
        xmlns="http://www.w3.org/2000/svg"
        xmlns:xlink="http://www.w3.org/1999/xlink"
        version="1.1"
        x="0px"
        y="0px"
        viewBox="0 0 100 125"
        style="enable-background:new 0 0 100 100;"
        xml:space="preserve">
    <g>
        <path fill="blue"
                d="M87.199,65.48C58.067,68.456,55.655,70.868,52.68,100c-2.975-29.132-5.387-31.544-34.519-34.52
    c29.132-2.975,31.544-5.387,34.519-34.519C55.655,60.094,58.067,62.506,87.199,65.48z M67.666,0
    c-2.037,19.956-3.689,21.608-23.646,23.646c19.957,2.038,21.609,3.69,23.646,23.646c2.039-19.956,3.691-21.608,23.646-23.646
    C71.357,21.608,69.705,19.956,67.666,0z M27.896,16.064c-1.656,16.21-2.998,17.553-19.208,19.208
     c16.21,1.656,17.553,2.998,19.208,19.208c1.656-16.21,2.998-17.553,19.209-19.208C30.894,33.617,29.552,32.275,27.896,16.064z"/>
    </g>
</svg>
