<?xml version="1.0" standalone="no"?>
<!DOCTYPE svg PUBLIC "-//W3C//DTD SVG 1.0//EN" "http://www.w3.org/TR/2001/REC-SVG-20010904/DTD/svg10.dtd">
<svg xmlns="http://www.w3.org/2000/svg" xmlns:xlink="http://www.w3.org/1999/xlink" id="body_1" width="30" height="30">

<g transform="matrix(0.06 0 0 0.06 0 0)">
	<g>
        <path d="M484.346 429.629C 481.252 429.397 478.131 429.473 475.021 429.469C 464.181 429.453 453.343 429.462 442.16998 429.462C 442.16998 419.465 442.16998 410.04102 442.16998 399.762C 446.05 399.762 449.485 399.843 452.917 399.749C 472.132 399.22098 485.955 385.146 485.96298 365.869C 486.003 275.473 486.003 185.07698 485.965 94.67999C 485.957 74.76699 471.576 60.519993 451.526 60.51499C 318.263 60.48999 185.00299 60.490993 51.742004 60.513992C 31.453005 60.517994 17.205006 74.77999 17.198006 95.093994C 17.170006 185.14499 17.170006 275.195 17.200006 365.246C 17.206007 385.467 31.026007 399.435 51.180008 399.766C 54.392006 399.818 57.60701 399.77298 60.85301 399.77298C 60.85301 410.07797 60.85301 419.62198 60.85301 429.46198C 58.99801 429.46198 57.627007 429.46198 56.257008 429.46198C 44.159008 429.47397 32.059006 429.399 19.96201 429.54297C 15.244009 429.59998 12.126009 432.73297 12.15601 436.77298C 12.186009 440.80298 15.38801 443.8 20.00301 444.08398C 21.03701 444.14697 22.07701 444.102 23.11401 444.102C 175.38802 444.102 327.661 444.104 479.93402 444.099C 481.49002 444.099 483.092 444.281 484.59003 443.974C 488.65103 443.143 491.14603 440.533 490.91504 436.374C 490.705 432.558 488.411 429.934 484.346 429.629zM123.035 429.087C 107.587006 429.087 92.310005 429.087 76.588005 429.087C 76.588005 400.566 76.588005 372.026 76.588005 343.108C 91.80301 343.108 107.076004 343.108 123.035 343.108C 123.035 371.849 123.035 400.278 123.035 429.087zM162.186 429.179C 154.229 429.179 146.57701 429.179 138.586 429.179C 138.586 419.379 138.586 409.865 138.586 400.06497C 146.573 400.06497 154.227 400.06497 162.186 400.06497C 162.186 409.858 162.186 419.38 162.186 429.179zM224.286 429.224C 208.67499 429.224 193.366 429.224 177.62 429.224C 177.62 368.389 177.62 307.706 177.62 246.608C 193.04199 246.608 208.46799 246.608 224.286 246.608C 224.286 307.255 224.286 367.954 224.286 429.224zM263.628 429.056C 255.711 429.056 247.87599 429.056 239.52899 429.056C 239.52899 419.249 239.52899 409.831 239.52899 400.098C 247.65399 400.098 255.48999 400.098 263.628 400.098C 263.628 409.811 263.628 419.229 263.628 429.056zM325.639 429.148C 309.885 429.148 294.462 429.148 278.769 429.148C 278.769 393.22702 278.769 357.592 278.769 321.65002C 294.45602 321.65002 309.88602 321.65002 325.639 321.65002C 325.639 357.586 325.639 393.208 325.639 429.148zM364.603 429.163C 356.636 429.163 348.983 429.163 340.999 429.163C 340.999 419.418 340.999 409.89398 340.999 400.07498C 348.896 400.07498 356.548 400.07498 364.603 400.07498C 364.603 410.074 364.603 419.471 364.603 429.163zM426.64 429.156C 411.07202 429.156 395.781 429.156 380.17502 429.156C 380.17502 362.383 380.17502 295.91602 380.17502 229.097C 395.656 229.097 410.95203 229.097 426.64 229.097C 426.64 295.662 426.64 362.114 426.64 429.156zM441.831 226.233C 441.83 215.647 440.185 214.035 429.451 214.034C 411.822 214.03299 394.192 214.03099 376.56198 214.034C 367.016 214.036 364.921 216.084 364.921 225.48999C 364.914 276.477 364.917 327.465 364.917 378.45C 364.917 380.48502 364.917 382.52002 364.917 384.84003C 356.729 384.84003 349.039 384.84003 340.66998 384.84003C 340.66998 382.92303 340.66998 381.09103 340.66998 379.25803C 340.66998 358.51703 340.68097 337.77902 340.663 317.03702C 340.66 308.92603 338.241 306.449 330.24 306.43903C 311.573 306.41302 292.908 306.41403 274.23898 306.43802C 266.137 306.44803 263.94598 308.709 263.938 316.997C 263.922 337.564 263.93298 358.131 263.93198 378.7C 263.93198 380.58002 263.93198 382.46002 263.93198 384.733C 255.75497 384.733 247.90198 384.733 239.24098 384.733C 239.24098 382.863 239.24098 380.868 239.24098 378.872C 239.24098 333.41602 239.24498 287.961 239.23598 242.50401C 239.23497 233.53502 237.31198 231.64001 228.29797 231.63802C 210.14998 231.63301 192.00197 231.63402 173.85397 231.63802C 164.39597 231.63902 162.49397 233.58502 162.49298 243.26302C 162.49098 288.20102 162.49298 333.138 162.49298 378.07602C 162.49298 380.14502 162.49298 382.21402 162.49298 384.71103C 154.49197 384.71103 146.67899 384.71103 138.24498 384.71103C 138.24498 380.90704 138.24498 377.15903 138.24498 373.41104C 138.24498 361.48505 138.30598 349.55905 138.21898 337.63504C 138.16998 330.82404 135.48297 328.12805 128.82498 328.11304C 109.46798 328.06705 90.109985 328.07104 70.75098 328.11102C 63.982975 328.12503 61.412975 330.65402 61.366978 337.545C 61.27498 351.371 61.33698 365.198 61.333977 379.02502C 61.333977 380.88702 61.333977 382.75104 61.333977 385.01202C 56.314976 385.01202 51.810978 385.45703 47.429977 384.91702C 38.894978 383.868 32.33798 376.30603 31.713978 367.47302C 31.616978 366.09702 31.678978 364.708 31.678978 363.32703C 31.677979 274.661 31.675978 185.99603 31.678978 97.33002C 31.678978 82.28802 38.832977 75.14602 53.92498 75.14602C 185.62698 75.14202 317.32898 75.14302 449.03 75.14602C 464.413 75.14602 471.485 82.24302 471.485 97.66302C 471.486 185.46402 471.485 273.265 471.485 361.06604C 471.485 379.03705 465.205 385.23605 447.106 385.14105C 445.56998 385.13205 444.033 385.13904 441.82898 385.13904C 441.82898 382.56003 441.82898 380.35904 441.82898 378.16003C 441.832 327.516 441.836 276.874 441.831 226.233z" stroke="none" fill="#5F5AF7" fill-rule="nonzero" />
        <path d="M216.546 178.49C 206.556 183.81401 196.99701 184.22801 187.177 179.724C 186.092 179.226 183.83 179.74 182.93001 180.619C 164.513 198.617 146.17801 216.699 127.992004 234.931C 126.981 235.945 126.699005 238.681 127.281006 240.132C 132.231 252.477 130.24901 263.646 121.379005 273.26102C 112.98401 282.363 102.231 284.84003 90.567 281.22202C 77.937004 277.303 70.974 268.06802 69.376 255.08401C 66.777 233.97601 88.876 216.79602 109.298996 223.87901C 111.245995 224.55402 113.10899 225.46602 115.806 226.60402C 134.813 206.81102 154.049 186.77702 173.714 166.29901C 167.808 151.755 170.509 137.95201 181.91301 128.90001C 192.621 120.40101 208.039 120.20201 218.99 128.42201C 229.694 136.45502 233.966 151.229 228.711 163.68001C 227.255 167.12901 227.739 169.02301 230.32199 171.53801C 249.00299 189.73601 267.52798 208.09702 286.229 226.531C 296.15 221.257 306.035 220.698 316.131 225.58C 317.031 226.016 319.092 225.299 319.92502 224.446C 338.50702 205.392 356.992 186.244 376.17603 166.408C 373.54303 160.866 371.786 153.375 373.91904 145.255C 378.36804 128.311 395.58704 118.53001 412.21503 123.717C 428.58203 128.823 437.51004 146.607 431.78802 162.71C 426.02203 178.94101 407.41202 187.34601 391.62003 180.376C 387.99103 178.77301 386.22903 179.451 383.80502 181.97401C 365.84402 200.66501 347.77502 219.25002 329.07602 238.55002C 331.55902 244.05801 333.479 251.32602 331.514 259.32703C 327.294 276.49103 309.768 286.67502 293.065 281.35303C 276.103 275.95102 267.487 257.44003 274.036 240.89003C 274.70102 239.21103 274.83102 236.16803 273.816 235.14803C 254.909 216.193 235.791 197.447 216.546 178.49zM302.209 267.972C 310.657 267.91397 317.707 260.85498 317.70502 252.45898C 317.703 244.18799 310.466 236.88399 302.186 236.79898C 293.54 236.71098 286.528 243.89998 286.63202 252.74599C 286.734 261.347 293.57 268.031 302.209 267.972zM201.175 137.082C 192.59201 136.901 185.463 143.573 185.171 152.06C 184.879 160.581 192.095 168.164 200.606 168.28C 208.83101 168.393 216.198 161.192 216.358 152.884C 216.522 144.416 209.647 137.261 201.175 137.082zM418.704 152.724C 418.754 144.071 412.06802 137.196 403.488 137.08C 394.829 136.961 387.44702 144.212 387.555 152.728C 387.66 160.987 395.01498 168.288 403.228 168.285C 411.647 168.285 418.655 161.237 418.704 152.724zM115.018 252.669C 115.113 244.106 108.395 237.054 99.909 236.806C 91.42 236.559 84.018 243.896 84.049995 252.522C 84.08199 261.033 90.995995 267.945 99.507996 267.97202C 108.12 268.004 114.921 261.292 115.018 252.669z" stroke="none" fill="#5F5AF7" fill-rule="nonzero" />
	</g>
</g>
</svg>